<svg width="230" height="230" viewBox="0 0 230 230" fill="none" xmlns="http://www.w3.org/2000/svg">
<path d="M124.889 4.69195L124.889 4.69204L225.308 105.108C230.897 110.698 230.897 119.765 225.308 125.355L125.357 225.308C125.357 225.308 125.357 225.308 125.357 225.308C119.762 230.898 110.703 230.897 105.116 225.308L105.116 225.308L4.69194 124.889C-0.897229 119.3 -0.897449 110.237 4.69209 104.643L73.1968 36.144L98.6828 61.6355C96.1028 68.1536 97.4337 75.8627 102.712 81.1386C104.383 82.8147 106.295 84.0829 108.34 84.9647V147.453C106.294 148.337 104.378 149.616 102.712 151.279L102.712 151.279C95.6332 158.356 95.6336 169.826 102.712 176.914L102.712 176.914C109.786 183.991 121.263 183.991 128.342 176.915L128.342 176.914C135.42 169.828 135.421 158.358 128.342 151.279C126.982 149.919 125.45 148.828 123.83 147.991V86.9359L146.522 109.626C143.989 116.119 145.348 123.783 150.587 129.028L150.588 129.028C157.674 136.109 169.144 136.109 176.227 129.028L176.227 129.028C183.306 121.944 183.306 110.474 176.228 103.395C171.239 98.3995 164.072 96.9511 157.799 98.9935L132.741 73.9374C134.786 67.6641 133.332 60.5014 128.342 55.5086C123.382 50.546 116.279 49.0804 110.03 51.0734L84.1513 25.1942L104.648 4.6921C104.648 4.69206 104.648 4.69203 104.648 4.69199C110.24 -0.897451 119.302 -0.897192 124.889 4.69195Z" stroke="#41DB39"/>
</svg>
