<svg width="222" height="341" viewBox="0 0 222 341" fill="none" xmlns="http://www.w3.org/2000/svg">
<path d="M221 89.5H1L20.5 315L111.5 340L201 315L221 89.5Z" stroke="#41DB39"/>
<path d="M181 136H41L49 220.5H144.5L141.5 255L111 264.5L80.5 255L78.5 235H49L53 277L111 293.5L167 277L174 192H74.5L71 164H178L181 136Z" stroke="#41DB39"/>
<mask id="path-3-outside-1_18_226" maskUnits="userSpaceOnUse" x="25" y="26" width="176" height="42" fill="#41DB39">
<rect fill="white" x="25" y="26" width="176" height="42"/>
<path d="M54.088 27.192H64.456V67H54.088V48.952H36.616V67H26.248V27.192H36.616V45.176H54.088V27.192ZM106.488 27.192V30.968H93.4315V67H83.1275V30.968H70.1995V27.192H106.488ZM121.528 67H112.248V27.192H123.32L135.672 52.088L148.408 27.192H159.48V67H150.2V37.048L139.256 58.36H132.216L121.528 37.112V67ZM180.366 63.224H199.566V67H169.998V27.192H180.366V63.224Z"/>
</mask>
<path d="M54.088 27.192V26.192H53.088V27.192H54.088ZM64.456 27.192H65.456V26.192H64.456V27.192ZM64.456 67V68H65.456V67H64.456ZM54.088 67H53.088V68H54.088V67ZM54.088 48.952H55.088V47.952H54.088V48.952ZM36.616 48.952V47.952H35.616V48.952H36.616ZM36.616 67V68H37.616V67H36.616ZM26.248 67H25.248V68H26.248V67ZM26.248 27.192V26.192H25.248V27.192H26.248ZM36.616 27.192H37.616V26.192H36.616V27.192ZM36.616 45.176H35.616V46.176H36.616V45.176ZM54.088 45.176V46.176H55.088V45.176H54.088ZM54.088 28.192H64.456V26.192H54.088V28.192ZM63.456 27.192V67H65.456V27.192H63.456ZM64.456 66H54.088V68H64.456V66ZM55.088 67V48.952H53.088V67H55.088ZM54.088 47.952H36.616V49.952H54.088V47.952ZM35.616 48.952V67H37.616V48.952H35.616ZM36.616 66H26.248V68H36.616V66ZM27.248 67V27.192H25.248V67H27.248ZM26.248 28.192H36.616V26.192H26.248V28.192ZM35.616 27.192V45.176H37.616V27.192H35.616ZM36.616 46.176H54.088V44.176H36.616V46.176ZM55.088 45.176V27.192H53.088V45.176H55.088ZM106.488 27.192H107.488V26.192H106.488V27.192ZM106.488 30.968V31.968H107.488V30.968H106.488ZM93.4315 30.968V29.968H92.4315V30.968H93.4315ZM93.4315 67V68H94.4315V67H93.4315ZM83.1275 67H82.1275V68H83.1275V67ZM83.1275 30.968H84.1275V29.968H83.1275V30.968ZM70.1995 30.968H69.1995V31.968H70.1995V30.968ZM70.1995 27.192V26.192H69.1995V27.192H70.1995ZM105.488 27.192V30.968H107.488V27.192H105.488ZM106.488 29.968H93.4315V31.968H106.488V29.968ZM92.4315 30.968V67H94.4315V30.968H92.4315ZM93.4315 66H83.1275V68H93.4315V66ZM84.1275 67V30.968H82.1275V67H84.1275ZM83.1275 29.968H70.1995V31.968H83.1275V29.968ZM71.1995 30.968V27.192H69.1995V30.968H71.1995ZM70.1995 28.192H106.488V26.192H70.1995V28.192ZM121.528 67V68H122.528V67H121.528ZM112.248 67H111.248V68H112.248V67ZM112.248 27.192V26.192H111.248V27.192H112.248ZM123.32 27.192L124.216 26.7475L123.94 26.192H123.32V27.192ZM135.672 52.088L134.776 52.5324L135.658 54.3104L136.562 52.5434L135.672 52.088ZM148.408 27.192V26.192H147.796L147.518 26.7366L148.408 27.192ZM159.48 27.192H160.48V26.192H159.48V27.192ZM159.48 67V68H160.48V67H159.48ZM150.2 67H149.2V68H150.2V67ZM150.2 37.048H151.2L149.31 36.5912L150.2 37.048ZM139.256 58.36V59.36H139.867L140.146 58.8168L139.256 58.36ZM132.216 58.36L131.323 58.8094L131.6 59.36H132.216V58.36ZM121.528 37.112L122.421 36.6626L120.528 37.112H121.528ZM121.528 66H112.248V68H121.528V66ZM113.248 67V27.192H111.248V67H113.248ZM112.248 28.192H123.32V26.192H112.248V28.192ZM122.424 27.6364L134.776 52.5324L136.568 51.6436L124.216 26.7475L122.424 27.6364ZM136.562 52.5434L149.298 27.6474L147.518 26.7366L134.782 51.6326L136.562 52.5434ZM148.408 28.192H159.48V26.192H148.408V28.192ZM158.48 27.192V67H160.48V27.192H158.48ZM159.48 66H150.2V68H159.48V66ZM151.2 67V37.048H149.2V67H151.2ZM149.31 36.5912L138.366 57.9032L140.146 58.8168L151.09 37.5048L149.31 36.5912ZM139.256 57.36H132.216V59.36H139.256V57.36ZM133.109 57.9106L122.421 36.6626L120.635 37.5614L131.323 58.8094L133.109 57.9106ZM120.528 37.112V67H122.528V37.112H120.528ZM180.366 63.224H179.366V64.224H180.366V63.224ZM199.566 63.224H200.566V62.224H199.566V63.224ZM199.566 67V68H200.566V67H199.566ZM169.998 67H168.998V68H169.998V67ZM169.998 27.192V26.192H168.998V27.192H169.998ZM180.366 27.192H181.366V26.192H180.366V27.192ZM180.366 64.224H199.566V62.224H180.366V64.224ZM198.566 63.224V67H200.566V63.224H198.566ZM199.566 66H169.998V68H199.566V66ZM170.998 67V27.192H168.998V67H170.998ZM169.998 28.192H180.366V26.192H169.998V28.192ZM179.366 27.192V63.224H181.366V27.192H179.366Z" fill="#41DB39" mask="url(#path-3-outside-1_18_226)"/>
</svg>
