<svg width="223" height="340" viewBox="0 0 223 340" fill="none" xmlns="http://www.w3.org/2000/svg">
<mask id="path-1-outside-1_18_233" maskUnits="userSpaceOnUse" x="49" y="26" width="123" height="42" fill="#41DB39">
<rect fill="white" x="49" y="26" width="123" height="42"/>
<path d="M85.808 41.208H75.44V32.952C75.44 32.0987 75.312 31.5653 75.056 31.352C74.8 31.096 74.2667 30.968 73.456 30.968H63.088C62.2773 30.968 61.744 31.096 61.488 31.352C61.232 31.5653 61.104 32.0987 61.104 32.952V61.24C61.104 62.0933 61.232 62.648 61.488 62.904C61.744 63.1173 62.2773 63.224 63.088 63.224H73.456C74.2667 63.224 74.8 63.1173 75.056 62.904C75.312 62.648 75.44 62.0933 75.44 61.24V53.048H85.808V61.944C85.808 65.3147 84.1227 67 80.752 67H55.792C52.4213 67 50.736 65.3147 50.736 61.944V32.248C50.736 28.8773 52.4213 27.192 55.792 27.192H80.752C84.1227 27.192 85.808 28.8773 85.808 32.248V41.208ZM117.54 61.24V50.808C117.54 49.9973 117.412 49.464 117.156 49.208C116.942 48.952 116.409 48.824 115.556 48.824H98.2755C94.9048 48.824 93.2195 47.1387 93.2195 43.768V32.248C93.2195 28.8773 94.9048 27.192 98.2755 27.192H122.596C125.966 27.192 127.652 28.8773 127.652 32.248V39.352H117.348V32.952C117.348 32.0987 117.22 31.5653 116.964 31.352C116.708 31.096 116.174 30.968 115.364 30.968H105.572C104.718 30.968 104.164 31.096 103.908 31.352C103.694 31.5653 103.588 32.0987 103.588 32.952V43.064C103.588 43.9173 103.694 44.472 103.908 44.728C104.164 44.9413 104.718 45.048 105.572 45.048H122.788C126.158 45.048 127.844 46.7333 127.844 50.104V61.944C127.844 65.3147 126.158 67 122.788 67H98.4675C95.0968 67 93.4115 65.3147 93.4115 61.944V54.84H103.716V61.24C103.716 62.0933 103.822 62.648 104.036 62.904C104.292 63.1173 104.846 63.224 105.7 63.224H115.556C116.409 63.224 116.942 63.1173 117.156 62.904C117.412 62.648 117.54 62.0933 117.54 61.24ZM160.352 61.24V50.808C160.352 49.9973 160.224 49.464 159.968 49.208C159.755 48.952 159.221 48.824 158.368 48.824H141.088C137.717 48.824 136.032 47.1387 136.032 43.768V32.248C136.032 28.8773 137.717 27.192 141.088 27.192H165.408C168.779 27.192 170.464 28.8773 170.464 32.248V39.352H160.16V32.952C160.16 32.0987 160.032 31.5653 159.776 31.352C159.52 31.096 158.987 30.968 158.176 30.968H148.384C147.531 30.968 146.976 31.096 146.72 31.352C146.507 31.5653 146.4 32.0987 146.4 32.952V43.064C146.4 43.9173 146.507 44.472 146.72 44.728C146.976 44.9413 147.531 45.048 148.384 45.048H165.6C168.971 45.048 170.656 46.7333 170.656 50.104V61.944C170.656 65.3147 168.971 67 165.6 67H141.28C137.909 67 136.224 65.3147 136.224 61.944V54.84H146.528V61.24C146.528 62.0933 146.635 62.648 146.848 62.904C147.104 63.1173 147.659 63.224 148.512 63.224H158.368C159.221 63.224 159.755 63.1173 159.968 62.904C160.224 62.648 160.352 62.0933 160.352 61.24Z"/>
</mask>
<path d="M85.808 41.208V42.208H86.808V41.208H85.808ZM75.44 41.208H74.44V42.208H75.44V41.208ZM75.056 31.352L74.3489 32.0591L74.381 32.0912L74.4158 32.1202L75.056 31.352ZM61.488 31.352L62.1282 32.1202L62.163 32.0912L62.1951 32.0591L61.488 31.352ZM61.488 62.904L60.7809 63.6111L60.813 63.6432L60.8478 63.6722L61.488 62.904ZM75.056 62.904L75.6962 63.6722L75.731 63.6432L75.7631 63.6111L75.056 62.904ZM75.44 53.048V52.048H74.44V53.048H75.44ZM85.808 53.048H86.808V52.048H85.808V53.048ZM85.808 40.208H75.44V42.208H85.808V40.208ZM76.44 41.208V32.952H74.44V41.208H76.44ZM76.44 32.952C76.44 32.485 76.4059 32.0517 76.3164 31.6786C76.2318 31.3262 76.0661 30.892 75.6962 30.5838L74.4158 32.1202C74.3019 32.0253 74.3282 31.9644 74.3716 32.1454C74.4101 32.3057 74.44 32.5656 74.44 32.952H76.44ZM75.7631 30.6449C75.454 30.3358 75.0578 30.1781 74.6974 30.0916C74.3274 30.0028 73.9063 29.968 73.456 29.968V31.968C73.8163 31.968 74.0673 31.9972 74.2306 32.0364C74.4036 32.0779 74.402 32.1122 74.3489 32.0591L75.7631 30.6449ZM73.456 29.968H63.088V31.968H73.456V29.968ZM63.088 29.968C62.6377 29.968 62.2166 30.0028 61.8466 30.0916C61.4862 30.1781 61.09 30.3358 60.7809 30.6449L62.1951 32.0591C62.142 32.1122 62.1404 32.0779 62.3134 32.0364C62.4767 31.9972 62.7277 31.968 63.088 31.968V29.968ZM60.8478 30.5838C60.4779 30.892 60.3122 31.3262 60.2276 31.6786C60.1381 32.0517 60.104 32.485 60.104 32.952H62.104C62.104 32.5656 62.1339 32.3057 62.1724 32.1454C62.2158 31.9644 62.2421 32.0253 62.1282 32.1202L60.8478 30.5838ZM60.104 32.952V61.24H62.104V32.952H60.104ZM60.104 61.24C60.104 61.7088 60.1384 62.143 60.2256 62.5209C60.3097 62.8852 60.4649 63.2951 60.7809 63.6111L62.1951 62.1969C62.2552 62.2569 62.2183 62.2615 62.1744 62.0711C62.1336 61.8943 62.104 61.6245 62.104 61.24H60.104ZM60.8478 63.6722C61.1604 63.9327 61.5458 64.057 61.8839 64.1246C62.2382 64.1954 62.6455 64.224 63.088 64.224V62.224C62.7198 62.224 62.4551 62.1992 62.2761 62.1634C62.0809 62.1244 62.0716 62.0886 62.1282 62.1358L60.8478 63.6722ZM63.088 64.224H73.456V62.224H63.088V64.224ZM73.456 64.224C73.8985 64.224 74.3058 64.1954 74.6601 64.1246C74.9982 64.057 75.3836 63.9327 75.6962 63.6722L74.4158 62.1358C74.4724 62.0886 74.4631 62.1244 74.2679 62.1634C74.0889 62.1992 73.8242 62.224 73.456 62.224V64.224ZM75.7631 63.6111C76.0792 63.2951 76.2343 62.8852 76.3184 62.5209C76.4056 62.143 76.44 61.7088 76.44 61.24H74.44C74.44 61.6245 74.4104 61.8943 74.3696 62.0711C74.3257 62.2615 74.2888 62.2569 74.3489 62.1969L75.7631 63.6111ZM76.44 61.24V53.048H74.44V61.24H76.44ZM75.44 54.048H85.808V52.048H75.44V54.048ZM84.808 53.048V61.944H86.808V53.048H84.808ZM84.808 61.944C84.808 63.4752 84.4259 64.4399 83.8369 65.0289C83.2479 65.6179 82.2832 66 80.752 66V68C82.5915 68 84.1548 67.5395 85.2511 66.4431C86.3475 65.3468 86.808 63.7835 86.808 61.944H84.808ZM80.752 66H55.792V68H80.752V66ZM55.792 66C54.2608 66 53.2961 65.6179 52.7071 65.0289C52.1181 64.4399 51.736 63.4752 51.736 61.944H49.736C49.736 63.7835 50.1965 65.3468 51.2929 66.4431C52.3892 67.5395 53.9525 68 55.792 68V66ZM51.736 61.944V32.248H49.736V61.944H51.736ZM51.736 32.248C51.736 30.7168 52.1181 29.7521 52.7071 29.1631C53.2961 28.5741 54.2608 28.192 55.792 28.192V26.192C53.9525 26.192 52.3892 26.6525 51.2929 27.7489C50.1965 28.8452 49.736 30.4085 49.736 32.248H51.736ZM55.792 28.192H80.752V26.192H55.792V28.192ZM80.752 28.192C82.2832 28.192 83.2479 28.5741 83.8369 29.1631C84.4259 29.7521 84.808 30.7168 84.808 32.248H86.808C86.808 30.4085 86.3475 28.8452 85.2511 27.7489C84.1548 26.6525 82.5915 26.192 80.752 26.192V28.192ZM84.808 32.248V41.208H86.808V32.248H84.808ZM117.156 49.208L116.387 49.8482L116.416 49.883L116.448 49.9151L117.156 49.208ZM127.652 39.352V40.352H128.652V39.352H127.652ZM117.348 39.352H116.348V40.352H117.348V39.352ZM116.964 31.352L116.256 32.0591L116.288 32.0912L116.323 32.1202L116.964 31.352ZM103.908 31.352L103.2 30.6449L103.2 30.6449L103.908 31.352ZM103.908 44.728L103.139 45.3682L103.197 45.438L103.267 45.4962L103.908 44.728ZM93.4115 54.84V53.84H92.4115V54.84H93.4115ZM103.716 54.84H104.716V53.84H103.716V54.84ZM104.036 62.904L103.267 63.5442L103.325 63.614L103.395 63.6722L104.036 62.904ZM117.156 62.904L116.448 62.1969L116.448 62.1969L117.156 62.904ZM118.54 61.24V50.808H116.54V61.24H118.54ZM118.54 50.808C118.54 50.3577 118.505 49.9366 118.416 49.5666C118.329 49.2062 118.172 48.81 117.863 48.5009L116.448 49.9151C116.395 49.862 116.43 49.8604 116.471 50.0334C116.51 50.1967 116.54 50.4477 116.54 50.808H118.54ZM117.924 48.5678C117.615 48.1979 117.181 48.0322 116.829 47.9476C116.456 47.8581 116.022 47.824 115.556 47.824V49.824C115.942 49.824 116.202 49.8539 116.362 49.8924C116.543 49.9358 116.482 49.9621 116.387 49.8482L117.924 48.5678ZM115.556 47.824H98.2755V49.824H115.556V47.824ZM98.2755 47.824C96.7443 47.824 95.7796 47.4419 95.1906 46.8529C94.6016 46.2639 94.2195 45.2992 94.2195 43.768H92.2195C92.2195 45.6075 92.68 47.1708 93.7764 48.2671C94.8727 49.3635 96.436 49.824 98.2755 49.824V47.824ZM94.2195 43.768V32.248H92.2195V43.768H94.2195ZM94.2195 32.248C94.2195 30.7168 94.6016 29.7521 95.1906 29.1631C95.7796 28.5741 96.7443 28.192 98.2755 28.192V26.192C96.436 26.192 94.8727 26.6525 93.7764 27.7489C92.68 28.8452 92.2195 30.4085 92.2195 32.248H94.2195ZM98.2755 28.192H122.596V26.192H98.2755V28.192ZM122.596 28.192C124.127 28.192 125.091 28.5741 125.68 29.1631C126.269 29.7521 126.652 30.7168 126.652 32.248H128.652C128.652 30.4085 128.191 28.8452 127.095 27.7489C125.998 26.6525 124.435 26.192 122.596 26.192V28.192ZM126.652 32.248V39.352H128.652V32.248H126.652ZM127.652 38.352H117.348V40.352H127.652V38.352ZM118.348 39.352V32.952H116.348V39.352H118.348ZM118.348 32.952C118.348 32.485 118.313 32.0517 118.224 31.6786C118.139 31.3262 117.974 30.892 117.604 30.5838L116.323 32.1202C116.209 32.0253 116.236 31.9644 116.279 32.1454C116.318 32.3057 116.348 32.5656 116.348 32.952H118.348ZM117.671 30.6449C117.361 30.3358 116.965 30.1781 116.605 30.0916C116.235 30.0028 115.814 29.968 115.364 29.968V31.968C115.724 31.968 115.975 31.9972 116.138 32.0364C116.311 32.0779 116.31 32.1122 116.256 32.0591L117.671 30.6449ZM115.364 29.968H105.572V31.968H115.364V29.968ZM105.572 29.968C105.103 29.968 104.668 30.0024 104.291 30.0896C103.926 30.1737 103.516 30.3288 103.2 30.6449L104.615 32.0591C104.555 32.1191 104.55 32.0823 104.74 32.0384C104.917 31.9976 105.187 31.968 105.572 31.968V29.968ZM103.2 30.6449C102.881 30.9641 102.752 31.3905 102.687 31.7159C102.616 32.0727 102.588 32.4921 102.588 32.952H104.588C104.588 32.5586 104.613 32.2846 104.648 32.1081C104.665 32.0214 104.681 31.9784 104.687 31.9659C104.693 31.9514 104.676 31.9972 104.615 32.0591L103.2 30.6449ZM102.588 32.952V43.064H104.588V32.952H102.588ZM102.588 43.064C102.588 43.5254 102.616 43.9464 102.685 44.3088C102.751 44.651 102.873 45.0491 103.139 45.3682L104.676 44.0878C104.728 44.1509 104.69 44.1437 104.65 43.9312C104.613 43.739 104.588 43.4559 104.588 43.064H102.588ZM103.267 45.4962C103.586 45.7621 103.984 45.8842 104.327 45.95C104.689 46.0197 105.11 46.048 105.572 46.048V44.048C105.18 44.048 104.897 44.023 104.704 43.986C104.492 43.9451 104.485 43.9072 104.548 43.9598L103.267 45.4962ZM105.572 46.048H122.788V44.048H105.572V46.048ZM122.788 46.048C124.319 46.048 125.283 46.4301 125.872 47.0191C126.461 47.6081 126.844 48.5728 126.844 50.104H128.844C128.844 48.2645 128.383 46.7012 127.287 45.6049C126.19 44.5085 124.627 44.048 122.788 44.048V46.048ZM126.844 50.104V61.944H128.844V50.104H126.844ZM126.844 61.944C126.844 63.4752 126.461 64.4399 125.872 65.0289C125.283 65.6179 124.319 66 122.788 66V68C124.627 68 126.19 67.5395 127.287 66.4431C128.383 65.3468 128.844 63.7835 128.844 61.944H126.844ZM122.788 66H98.4675V68H122.788V66ZM98.4675 66C96.9363 66 95.9716 65.6179 95.3826 65.0289C94.7936 64.4399 94.4115 63.4752 94.4115 61.944H92.4115C92.4115 63.7835 92.872 65.3468 93.9684 66.4431C95.0647 67.5395 96.628 68 98.4675 68V66ZM94.4115 61.944V54.84H92.4115V61.944H94.4115ZM93.4115 55.84H103.716V53.84H93.4115V55.84ZM102.716 54.84V61.24H104.716V54.84H102.716ZM102.716 61.24C102.716 61.7014 102.744 62.1224 102.813 62.4848C102.879 62.827 103.001 63.2251 103.267 63.5442L104.804 62.2638C104.856 62.3269 104.818 62.3197 104.778 62.1072C104.741 61.915 104.716 61.6319 104.716 61.24H102.716ZM103.395 63.6722C103.714 63.9381 104.112 64.0602 104.455 64.126C104.817 64.1957 105.238 64.224 105.7 64.224V62.224C105.308 62.224 105.025 62.199 104.832 62.162C104.62 62.1211 104.613 62.0832 104.676 62.1358L103.395 63.6722ZM105.7 64.224H115.556V62.224H105.7V64.224ZM115.556 64.224C116.015 64.224 116.435 64.196 116.792 64.1246C117.117 64.0595 117.543 63.9303 117.863 63.6111L116.448 62.1969C116.51 62.135 116.556 62.1187 116.542 62.1249C116.529 62.1302 116.486 62.1461 116.399 62.1634C116.223 62.1987 115.949 62.224 115.556 62.224V64.224ZM117.863 63.6111C118.179 63.2951 118.334 62.8852 118.418 62.5209C118.505 62.143 118.54 61.7088 118.54 61.24H116.54C116.54 61.6245 116.51 61.8943 116.469 62.0711C116.425 62.2615 116.388 62.2569 116.448 62.1969L117.863 63.6111ZM159.968 49.208L159.2 49.8482L159.229 49.883L159.261 49.9151L159.968 49.208ZM170.464 39.352V40.352H171.464V39.352H170.464ZM160.16 39.352H159.16V40.352H160.16V39.352ZM159.776 31.352L159.069 32.0591L159.101 32.0912L159.136 32.1202L159.776 31.352ZM146.72 31.352L146.013 30.6449L146.013 30.6449L146.72 31.352ZM146.72 44.728L145.952 45.3682L146.01 45.438L146.08 45.4962L146.72 44.728ZM136.224 54.84V53.84H135.224V54.84H136.224ZM146.528 54.84H147.528V53.84H146.528V54.84ZM146.848 62.904L146.08 63.5442L146.138 63.614L146.208 63.6722L146.848 62.904ZM159.968 62.904L159.261 62.1969L159.261 62.1969L159.968 62.904ZM161.352 61.24V50.808H159.352V61.24H161.352ZM161.352 50.808C161.352 50.3577 161.317 49.9366 161.228 49.5666C161.142 49.2062 160.984 48.81 160.675 48.5009L159.261 49.9151C159.208 49.862 159.242 49.8604 159.284 50.0334C159.323 50.1967 159.352 50.4477 159.352 50.808H161.352ZM160.736 48.5678C160.428 48.1979 159.994 48.0322 159.641 47.9476C159.268 47.8581 158.835 47.824 158.368 47.824V49.824C158.754 49.824 159.014 49.8539 159.175 49.8924C159.356 49.9358 159.295 49.9621 159.2 49.8482L160.736 48.5678ZM158.368 47.824H141.088V49.824H158.368V47.824ZM141.088 47.824C139.557 47.824 138.592 47.4419 138.003 46.8529C137.414 46.2639 137.032 45.2992 137.032 43.768H135.032C135.032 45.6075 135.493 47.1708 136.589 48.2671C137.685 49.3635 139.249 49.824 141.088 49.824V47.824ZM137.032 43.768V32.248H135.032V43.768H137.032ZM137.032 32.248C137.032 30.7168 137.414 29.7521 138.003 29.1631C138.592 28.5741 139.557 28.192 141.088 28.192V26.192C139.249 26.192 137.685 26.6525 136.589 27.7489C135.493 28.8452 135.032 30.4085 135.032 32.248H137.032ZM141.088 28.192H165.408V26.192H141.088V28.192ZM165.408 28.192C166.939 28.192 167.904 28.5741 168.493 29.1631C169.082 29.7521 169.464 30.7168 169.464 32.248H171.464C171.464 30.4085 171.003 28.8452 169.907 27.7489C168.811 26.6525 167.247 26.192 165.408 26.192V28.192ZM169.464 32.248V39.352H171.464V32.248H169.464ZM170.464 38.352H160.16V40.352H170.464V38.352ZM161.16 39.352V32.952H159.16V39.352H161.16ZM161.16 32.952C161.16 32.485 161.126 32.0517 161.036 31.6786C160.952 31.3262 160.786 30.892 160.416 30.5838L159.136 32.1202C159.022 32.0253 159.048 31.9644 159.092 32.1454C159.13 32.3057 159.16 32.5656 159.16 32.952H161.16ZM160.483 30.6449C160.174 30.3358 159.778 30.1781 159.417 30.0916C159.047 30.0028 158.626 29.968 158.176 29.968V31.968C158.536 31.968 158.787 31.9972 158.951 32.0364C159.124 32.0779 159.122 32.1122 159.069 32.0591L160.483 30.6449ZM158.176 29.968H148.384V31.968H158.176V29.968ZM148.384 29.968C147.915 29.968 147.481 30.0024 147.103 30.0896C146.739 30.1737 146.329 30.3288 146.013 30.6449L147.427 32.0591C147.367 32.1191 147.363 32.0823 147.553 32.0384C147.73 31.9976 147.999 31.968 148.384 31.968V29.968ZM146.013 30.6449C145.694 30.9641 145.564 31.3905 145.499 31.7159C145.428 32.0727 145.4 32.4921 145.4 32.952H147.4C147.4 32.5586 147.425 32.2846 147.461 32.1081C147.478 32.0214 147.494 31.9784 147.499 31.9659C147.505 31.9514 147.489 31.9972 147.427 32.0591L146.013 30.6449ZM145.4 32.952V43.064H147.4V32.952H145.4ZM145.4 43.064C145.4 43.5254 145.428 43.9464 145.498 44.3088C145.564 44.651 145.686 45.0491 145.952 45.3682L147.488 44.0878C147.541 44.1509 147.503 44.1437 147.462 43.9312C147.425 43.739 147.4 43.4559 147.4 43.064H145.4ZM146.08 45.4962C146.399 45.7621 146.797 45.8842 147.139 45.95C147.502 46.0197 147.923 46.048 148.384 46.048V44.048C147.992 44.048 147.709 44.023 147.517 43.986C147.304 43.9451 147.297 43.9072 147.36 43.9598L146.08 45.4962ZM148.384 46.048H165.6V44.048H148.384V46.048ZM165.6 46.048C167.131 46.048 168.096 46.4301 168.685 47.0191C169.274 47.6081 169.656 48.5728 169.656 50.104H171.656C171.656 48.2645 171.195 46.7012 170.099 45.6049C169.003 44.5085 167.439 44.048 165.6 44.048V46.048ZM169.656 50.104V61.944H171.656V50.104H169.656ZM169.656 61.944C169.656 63.4752 169.274 64.4399 168.685 65.0289C168.096 65.6179 167.131 66 165.6 66V68C167.439 68 169.003 67.5395 170.099 66.4431C171.195 65.3468 171.656 63.7835 171.656 61.944H169.656ZM165.6 66H141.28V68H165.6V66ZM141.28 66C139.749 66 138.784 65.6179 138.195 65.0289C137.606 64.4399 137.224 63.4752 137.224 61.944H135.224C135.224 63.7835 135.685 65.3468 136.781 66.4431C137.877 67.5395 139.441 68 141.28 68V66ZM137.224 61.944V54.84H135.224V61.944H137.224ZM136.224 55.84H146.528V53.84H136.224V55.84ZM145.528 54.84V61.24H147.528V54.84H145.528ZM145.528 61.24C145.528 61.7014 145.556 62.1224 145.626 62.4848C145.692 62.827 145.814 63.2251 146.08 63.5442L147.616 62.2638C147.669 62.3269 147.631 62.3197 147.59 62.1072C147.553 61.915 147.528 61.6319 147.528 61.24H145.528ZM146.208 63.6722C146.527 63.9381 146.925 64.0602 147.267 64.126C147.63 64.1957 148.051 64.224 148.512 64.224V62.224C148.12 62.224 147.837 62.199 147.645 62.162C147.432 62.1211 147.425 62.0832 147.488 62.1358L146.208 63.6722ZM148.512 64.224H158.368V62.224H148.512V64.224ZM158.368 64.224C158.828 64.224 159.247 64.196 159.604 64.1246C159.929 64.0595 160.356 63.9303 160.675 63.6111L159.261 62.1969C159.323 62.135 159.369 62.1187 159.354 62.1249C159.342 62.1302 159.299 62.1461 159.212 62.1634C159.035 62.1987 158.761 62.224 158.368 62.224V64.224ZM160.675 63.6111C160.991 63.2951 161.146 62.8852 161.23 62.5209C161.318 62.143 161.352 61.7088 161.352 61.24H159.352C159.352 61.6245 159.322 61.8943 159.282 62.0711C159.238 62.2615 159.201 62.2569 159.261 62.1969L160.675 63.6111Z" fill="#41DB39" mask="url(#path-1-outside-1_18_233)"/>
<path d="M221.5 88H1L21 314.5L111.5 339L202 314.5L221.5 88Z" stroke="#41DB39"/>
<path d="M181.5 134.5H42L44.5 162.5H150L148 191H45.5L50.5 219.5H146L142.5 254.5L111.5 262L81.5 254.5L79.5 232.5H50.5L55 275.5L111.5 291.5L168.5 275.5L181.5 134.5Z" stroke="#41DB39"/>
</svg>
