<svg width="344" height="344" viewBox="0 0 344 344" fill="none" xmlns="http://www.w3.org/2000/svg">
<mask id="path-1-outside-1_18_238" maskUnits="userSpaceOnUse" x="55" y="186" width="275" height="144" fill="#41DB39">
<rect fill="white" x="55" y="186" width="275" height="144"/>
<path d="M56.068 276.104H93.004V308.48C93.004 311.52 93.384 313.496 94.144 314.408C95.056 315.168 97.032 315.548 100.072 315.548H129.484C132.372 315.548 134.272 315.168 135.184 314.408C136.096 313.496 136.552 311.52 136.552 308.48V187.184H173.488V310.988C173.488 322.996 167.484 329 155.476 329H74.08C62.072 329 56.068 322.996 56.068 310.988V276.104ZM291.391 308.48V271.316C291.391 268.428 290.935 266.528 290.023 265.616C289.263 264.704 287.363 264.248 284.323 264.248H222.763C210.755 264.248 204.751 258.244 204.751 246.236V205.196C204.751 193.188 210.755 187.184 222.763 187.184H309.403C321.411 187.184 327.415 193.188 327.415 205.196V230.504H290.707V207.704C290.707 204.664 290.251 202.764 289.339 202.004C288.427 201.092 286.527 200.636 283.639 200.636H248.755C245.715 200.636 243.739 201.092 242.827 202.004C242.067 202.764 241.687 204.664 241.687 207.704V243.728C241.687 246.768 242.067 248.744 242.827 249.656C243.739 250.416 245.715 250.796 248.755 250.796H310.087C322.095 250.796 328.099 256.8 328.099 268.808V310.988C328.099 322.996 322.095 329 310.087 329H223.447C211.439 329 205.435 322.996 205.435 310.988V285.68H242.143V308.48C242.143 311.52 242.523 313.496 243.283 314.408C244.195 315.168 246.171 315.548 249.211 315.548H284.323C287.363 315.548 289.263 315.168 290.023 314.408C290.935 313.496 291.391 311.52 291.391 308.48Z"/>
</mask>
<path d="M56.068 276.104V275.104H55.068V276.104H56.068ZM93.004 276.104H94.004V275.104H93.004V276.104ZM94.144 314.408L93.3758 315.048L93.434 315.118L93.5038 315.176L94.144 314.408ZM135.184 314.408L135.824 315.176L135.859 315.147L135.891 315.115L135.184 314.408ZM136.552 187.184V186.184H135.552V187.184H136.552ZM173.488 187.184H174.488V186.184H173.488V187.184ZM56.068 277.104H93.004V275.104H56.068V277.104ZM92.004 276.104V308.48H94.004V276.104H92.004ZM92.004 308.48C92.004 310.035 92.1006 311.358 92.307 312.431C92.5095 313.484 92.8365 314.401 93.3758 315.048L94.9122 313.768C94.6915 313.503 94.4485 312.976 94.271 312.053C94.0974 311.15 94.004 309.965 94.004 308.48H92.004ZM93.5038 315.176C94.1509 315.715 95.0683 316.043 96.1212 316.245C97.1943 316.451 98.5172 316.548 100.072 316.548V314.548C98.5868 314.548 97.4017 314.455 96.4988 314.281C95.5757 314.103 95.0491 313.861 94.7842 313.64L93.5038 315.176ZM100.072 316.548H129.484V314.548H100.072V316.548ZM129.484 316.548C130.965 316.548 132.233 316.451 133.271 316.244C134.293 316.039 135.184 315.71 135.824 315.176L134.544 313.64C134.272 313.866 133.757 314.107 132.879 314.282C132.017 314.455 130.891 314.548 129.484 314.548V316.548ZM135.891 315.115C136.535 314.471 136.936 313.542 137.184 312.467C137.436 311.378 137.552 310.042 137.552 308.48H135.552C135.552 309.958 135.44 311.13 135.236 312.017C135.028 312.918 134.745 313.433 134.477 313.701L135.891 315.115ZM137.552 308.48V187.184H135.552V308.48H137.552ZM136.552 188.184H173.488V186.184H136.552V188.184ZM172.488 187.184V310.988H174.488V187.184H172.488ZM172.488 310.988C172.488 316.838 171.026 321.042 168.278 323.79C165.53 326.538 161.326 328 155.476 328V330C161.634 330 166.436 328.46 169.692 325.204C172.948 321.948 174.488 317.146 174.488 310.988H172.488ZM155.476 328H74.08V330H155.476V328ZM74.08 328C68.2301 328 64.0264 326.538 61.2781 323.79C58.5298 321.042 57.068 316.838 57.068 310.988H55.068C55.068 317.146 56.6082 321.948 59.8639 325.204C63.1196 328.46 67.9219 330 74.08 330V328ZM57.068 310.988V276.104H55.068V310.988H57.068ZM290.023 265.616L289.254 266.256L289.284 266.291L289.316 266.323L290.023 265.616ZM327.415 230.504V231.504H328.415V230.504H327.415ZM290.707 230.504H289.707V231.504H290.707V230.504ZM289.339 202.004L288.632 202.711L288.664 202.743L288.699 202.772L289.339 202.004ZM242.827 202.004L242.12 201.297L242.12 201.297L242.827 202.004ZM242.827 249.656L242.058 250.296L242.117 250.366L242.187 250.424L242.827 249.656ZM205.435 285.68V284.68H204.435V285.68H205.435ZM242.143 285.68H243.143V284.68H242.143V285.68ZM243.283 314.408L242.514 315.048L242.573 315.118L242.643 315.176L243.283 314.408ZM290.023 314.408L289.316 313.701L289.316 313.701L290.023 314.408ZM292.391 308.48V271.316H290.391V308.48H292.391ZM292.391 271.316C292.391 269.827 292.274 268.545 292.021 267.492C291.771 266.448 291.367 265.546 290.73 264.909L289.316 266.323C289.59 266.598 289.871 267.102 290.076 267.958C290.28 268.805 290.391 269.917 290.391 271.316H292.391ZM290.791 264.976C290.209 264.278 289.297 263.866 288.261 263.618C287.205 263.364 285.883 263.248 284.323 263.248V265.248C285.802 265.248 286.951 265.36 287.794 265.562C288.659 265.77 289.076 266.042 289.254 266.256L290.791 264.976ZM284.323 263.248H222.763V265.248H284.323V263.248ZM222.763 263.248C216.913 263.248 212.709 261.786 209.961 259.038C207.213 256.29 205.751 252.086 205.751 246.236H203.751C203.751 252.394 205.291 257.196 208.547 260.452C211.802 263.708 216.605 265.248 222.763 265.248V263.248ZM205.751 246.236V205.196H203.751V246.236H205.751ZM205.751 205.196C205.751 199.346 207.213 195.142 209.961 192.394C212.709 189.646 216.913 188.184 222.763 188.184V186.184C216.605 186.184 211.802 187.724 208.547 190.98C205.291 194.236 203.751 199.038 203.751 205.196H205.751ZM222.763 188.184H309.403V186.184H222.763V188.184ZM309.403 188.184C315.253 188.184 319.456 189.646 322.205 192.394C324.953 195.142 326.415 199.346 326.415 205.196H328.415C328.415 199.038 326.875 194.236 323.619 190.98C320.363 187.724 315.561 186.184 309.403 186.184V188.184ZM326.415 205.196V230.504H328.415V205.196H326.415ZM327.415 229.504H290.707V231.504H327.415V229.504ZM291.707 230.504V207.704H289.707V230.504H291.707ZM291.707 207.704C291.707 206.144 291.591 204.822 291.337 203.766C291.089 202.73 290.677 201.817 289.979 201.236L288.699 202.772C288.913 202.951 289.185 203.368 289.392 204.232C289.595 205.076 289.707 206.224 289.707 207.704H291.707ZM290.046 201.297C289.409 200.66 288.507 200.256 287.463 200.006C286.41 199.753 285.128 199.636 283.639 199.636V201.636C285.038 201.636 286.15 201.747 286.996 201.95C287.853 202.156 288.357 202.436 288.632 202.711L290.046 201.297ZM283.639 199.636H248.755V201.636H283.639V199.636ZM248.755 199.636C247.193 199.636 245.856 199.752 244.768 200.004C243.693 200.252 242.764 200.653 242.12 201.297L243.534 202.711C243.802 202.443 244.317 202.16 245.218 201.952C246.105 201.748 247.277 201.636 248.755 201.636V199.636ZM242.12 201.297C241.527 201.889 241.193 202.794 240.991 203.803C240.783 204.843 240.687 206.151 240.687 207.704H242.687C242.687 206.217 242.78 205.055 242.952 204.195C243.131 203.304 243.366 202.879 243.534 202.711L242.12 201.297ZM240.687 207.704V243.728H242.687V207.704H240.687ZM240.687 243.728C240.687 245.283 240.783 246.606 240.99 247.679C241.192 248.732 241.519 249.649 242.058 250.296L243.595 249.016C243.374 248.751 243.131 248.224 242.954 247.301C242.78 246.398 242.687 245.213 242.687 243.728H240.687ZM242.187 250.424C242.834 250.963 243.751 251.291 244.804 251.493C245.877 251.699 247.2 251.796 248.755 251.796V249.796C247.27 249.796 246.084 249.703 245.182 249.529C244.258 249.351 243.732 249.109 243.467 248.888L242.187 250.424ZM248.755 251.796H310.087V249.796H248.755V251.796ZM310.087 251.796C315.937 251.796 320.14 253.258 322.889 256.006C325.637 258.754 327.099 262.958 327.099 268.808H329.099C329.099 262.65 327.559 257.848 324.303 254.592C321.047 251.336 316.245 249.796 310.087 249.796V251.796ZM327.099 268.808V310.988H329.099V268.808H327.099ZM327.099 310.988C327.099 316.838 325.637 321.042 322.889 323.79C320.14 326.538 315.937 328 310.087 328V330C316.245 330 321.047 328.46 324.303 325.204C327.559 321.948 329.099 317.146 329.099 310.988H327.099ZM310.087 328H223.447V330H310.087V328ZM223.447 328C217.597 328 213.393 326.538 210.645 323.79C207.897 321.042 206.435 316.838 206.435 310.988H204.435C204.435 317.146 205.975 321.948 209.231 325.204C212.486 328.46 217.289 330 223.447 330V328ZM206.435 310.988V285.68H204.435V310.988H206.435ZM205.435 286.68H242.143V284.68H205.435V286.68ZM241.143 285.68V308.48H243.143V285.68H241.143ZM241.143 308.48C241.143 310.035 241.239 311.358 241.446 312.431C241.648 313.484 241.975 314.401 242.514 315.048L244.051 313.768C243.83 313.503 243.587 312.976 243.41 312.053C243.236 311.15 243.143 309.965 243.143 308.48H241.143ZM242.643 315.176C243.29 315.715 244.207 316.043 245.26 316.245C246.333 316.451 247.656 316.548 249.211 316.548V314.548C247.726 314.548 246.54 314.455 245.638 314.281C244.714 314.103 244.188 313.861 243.923 313.64L242.643 315.176ZM249.211 316.548H284.323V314.548H249.211V316.548ZM284.323 316.548C285.876 316.548 287.184 316.452 288.224 316.244C289.233 316.042 290.137 315.708 290.73 315.115L289.316 313.701C289.148 313.868 288.723 314.104 287.832 314.282C286.972 314.454 285.809 314.548 284.323 314.548V316.548ZM290.73 315.115C291.374 314.471 291.775 313.542 292.023 312.467C292.274 311.378 292.391 310.042 292.391 308.48H290.391C290.391 309.958 290.279 311.13 290.074 312.017C289.866 312.918 289.584 313.433 289.316 313.701L290.73 315.115Z" fill="#41DB39" mask="url(#path-1-outside-1_18_238)"/>
<path d="M343 1H1V343H343V1Z" stroke="#41DB39"/>
</svg>
